PathFileType	4	(X/Y/Z)	/Users/niels/Desktop/University/Third Semester/Perception and Action/Exam/Gymnastics Motion Tracking/Code for Gym Tracking/Analyzed Data/Webcam_Backflip/id1_1_baseline_Sports2D/id1_1_baseline_Sports2D_px_person00.trc
DataRate	CameraRate	NumFrames	NumMarkers	Units	OrigDataRate	OrigDataStartFrame	OrigNumFrames
29.872340425531917	29.872340425531917	12	22	m	29.872340425531917	117	235
Frame#	Time	Hip			RHip			RKnee			RAnkle			RBigToe			RSmallToe			RHeel			LHip			LKnee			LAnkle			LBigToe			LSmallToe			LHeel			Neck			Head			Nose			RShoulder			RElbow			RWrist			LShoulder			LElbow			LWrist		
		X1	Y1	Z1	X2	Y2	Z2	X3	Y3	Z3	X4	Y4	Z4	X5	Y5	Z5	X6	Y6	Z6	X7	Y7	Z7	X8	Y8	Z8	X9	Y9	Z9	X10	Y10	Z10	X11	Y11	Z11	X12	Y12	Z12	X13	Y13	Z13	X14	Y14	Z14	X15	Y15	Z15	X16	Y16	Z16	X17	Y17	Z17	X18	Y18	Z18	X19	Y19	Z19	X20	Y20	Z20	X21	Y21	Z21	X22	Y22	Z22
117	3.916666666666667	0.8217482890999177	-0.5727645856743943	0.0	0.8154800457575873	-0.5707534539331438	0.0	0.8284789682051704	-0.6880672177396185	0.0	0.7899904920228551	-0.8090748608096533	0.0	0.8370639573722776	-0.8243136183024428	0.0	0.8271775188614214	-0.8294887738974314	0.0	0.7770901746117981	-0.8226266430959549	0.0	0.8351703657319869	-0.5688519862955732	0.0	0.8906707096142432	-0.6532547988586749	0.0	0.8753436694532736	-0.7565064165766562	0.0	0.9159593085082767	-0.7793744563526412	0.0	0.9119766571919218	-0.7725760001299634	0.0	0.8665888426185778	-0.7722637865386793	0.0	0.8537652952341049	-0.4178440891752434	0.0	0.9114033168222416	-0.36986684255188484	0.0	0.900192491962235	-0.4119010041679389	0.0	0.835027638157012	-0.4274117719434924	0.0	0.7968343179719954	-0.49268951816217443	0.0	0.8293732426388667	-0.5589267272673655	0.0	0.8399502733007125	-0.42726553207785894	0.0	0.8048706835655711	-0.4958876203204197	0.0	0.8330037922925032	-0.5566645664051877	0.0
118	3.9501424501424505	0.8269773651076989	-0.5741818411666221	0.0	0.8199315237818638	-0.5719928941411666	0.0	0.8284942768521902	-0.6897169398808761	0.0	0.7900255073080955	-0.8105311191405334	0.0	0.8376350098928408	-0.8256196981119908	0.0	0.8277342230146988	-0.8307573712824349	0.0	0.7774803547340776	-0.8240884036211787	0.0	0.8412048928946557	-0.5704328826972935	0.0	0.8958990468105638	-0.656215070670189	0.0	0.8921090659065616	-0.7615525798676877	0.0	0.9353473757303653	-0.781036860100303	0.0	0.9313181891841125	-0.7746130558983962	0.0	0.8856431813567888	-0.7781291365987053	0.0	0.8580457589117003	-0.4195833979277174	0.0	0.9149580380634844	-0.36932077413070763	0.0	0.9044422290789312	-0.411975650149283	0.0	0.8377770571171669	-0.4287284985762249	0.0	0.7970385693424568	-0.4904327515373061	0.0	0.830062908833112	-0.5540899296207583	0.0	0.8456117105752429	-0.4301406677361229	0.0	0.8075515425477174	-0.49414459007095146	0.0	0.8368180914475807	-0.5535790988111398	0.0
119	3.983618233618234	0.8324695938782366	-0.5782390273290599	0.0	0.824596371461841	-0.5758081707263402	0.0	0.8290382145822152	-0.6930409448936353	0.0	0.790058353135377	-0.8138820666413084	0.0	0.8380563947770849	-0.8283696516645318	0.0	0.827930376312652	-0.8334605479033848	0.0	0.7778090296462271	-0.8272919873642237	0.0	0.8471483096300116	-0.5746324622275737	0.0	0.9002971762714914	-0.6620771619845418	0.0	0.904276646952941	-0.7683220879546735	0.0	0.9495010410081229	-0.7852316968569173	0.0	0.9450218235569935	-0.7792676553264254	0.0	0.8994892753626179	-0.7854508799196389	0.0	0.8623460322654087	-0.4232357664352645	0.0	0.9177773492471897	-0.37035165553406413	0.0	0.9081893905361081	-0.41367947533400945	0.0	0.8401063409032189	-0.4322549120032924	0.0	0.7969753091326822	-0.4905231227649105	0.0	0.8306128780372022	-0.5506708360592436	0.0	0.852038267168477	-0.4356195770978105	0.0	0.8110661553036281	-0.49531793154470055	0.0	0.8405322373636203	-0.5534622942628088	0.0
120	4.017094017094017	0.8384231889231734	-0.5844503670840073	0.0	0.8296053356431956	-0.581838818207054	0.0	0.8303024062320616	-0.6976483509134	0.0	0.7901694622061375	-0.818590105553506	0.0	0.8378473757980587	-0.831997389967131	0.0	0.8271507083511077	-0.8370742781732186	0.0	0.7781702335141731	-0.8317607775350546	0.0	0.8533857825818679	-0.5809753849854483	0.0	0.9040901875090491	-0.6702040868995859	0.0	0.9120804221644397	-0.7766873086055813	0.0	0.9587060032163838	-0.7917784260571434	0.0	0.9535729265482109	-0.7863678647495005	0.0	0.9082382337265694	-0.7941616326993783	0.0	0.8668656961091965	-0.4284067795861804	0.0	0.9198407860009136	-0.3727460714641815	0.0	0.91147648727161	-0.41663895473497725	0.0	0.8421625419310804	-0.4377421413177943	0.0	0.7969315944745978	-0.49306712836440814	0.0	0.8310675176953253	-0.5488101725230138	0.0	0.8594513971553549	-0.4431941941865552	0.0	0.8168988546479407	-0.49968198977469513	0.0	0.8453322505533992	-0.5567256636991735	0.0
121	4.050569800569801	0.8449626453848761	-0.5920341326760612	0.0	0.8350512204612582	-0.5893886126691501	0.0	0.8324161871010268	-0.7030889423461665	0.0	0.7904301228202789	-0.8239670196020994	0.0	0.8365945452898488	-0.8359179150047656	0.0	0.8249707111914434	-0.8410144313956215	0.0	0.7786445174647383	-0.836890936827405	0.0	0.860167855226555	-0.5887722314077728	0.0	0.9074242965177554	-0.6797997743404269	0.0	0.9163803037751846	-0.7861981832482559	0.0	0.963886128663138	-0.7999937892484388	0.0	0.9581089994421201	-0.7952377839139984	0.0	0.9127962274695767	-0.8038316003359668	0.0	0.8717062094075205	-0.4346209981376589	0.0	0.9212049985717906	-0.3762377502530274	0.0	0.9142893185747717	-0.4204275267543351	0.0	0.8442037205767869	-0.4446315468471763	0.0	0.7973724322234452	-0.49788225355371185	0.0	0.8316389692683845	-0.5487136072231973	0.0	0.867783736128274	-0.452131529855611	0.0	0.8260365063406754	-0.5071851319959478	0.0	0.8520963587647254	-0.5636304872845729	0.0
122	4.084045584045584	0.8521069547013691	-0.6000856064136441	0.0	0.8409540597912956	-0.5975828569847321	0.0	0.8354231832860872	-0.7088767639991767	0.0	0.7908704793093438	-0.8292475115986532	0.0	0.8342114929833732	-0.8396664498439758	0.0	0.8214638379000896	-0.8447660042840889	0.0	0.7792594553289717	-0.8420093520258177	0.0	0.8675592204561058	-0.5972339498533155	0.0	0.910475143904412	-0.6899039421943132	0.0	0.9183158616454637	-0.7961150656225445	0.0	0.9662092671603525	-0.8088845424424125	0.0	0.9600026900270988	-0.804843815760969	0.0	0.9144387073610769	-0.8137074238260541	0.0	0.8768220191873766	-0.44130786722065163	0.0	0.922032700823752	-0.3804550415766834	0.0	0.9165857303210049	-0.4246063624110607	0.0	0.8465187480857723	-0.4521527441442646	0.0	0.79877065889762	-0.5044709087534791	0.0	0.83256921241957	-0.5505480337653735	0.0	0.8767515854410944	-0.461534777970266	0.0	0.8384808671565099	-0.5172625873607973	0.0	0.8612897151170701	-0.5738947912782868	0.0
123	4.117521367521368	0.8597539581767918	-0.6076914515918604	0.0	0.8472725107712583	-0.6055139486775344	0.0	0.8393377400100274	-0.7144869998835047	0.0	0.7914933981564907	-0.833593184443278	0.0	0.8310593674493825	-0.8429152991582681	0.0	0.817267473307853	-0.8479112423167949	0.0	0.7799859717320771	-0.8463400623591217	0.0	0.8754204970413372	-0.6055136326763064	0.0	0.9134477671444394	-0.6994755337888441	0.0	0.9189279695858191	-0.8055466961637509	0.0	0.9666953302383821	-0.8174493356365539	0.0	0.9604237831168142	-0.8140928566033042	0.0	0.9143767260338101	-0.822892654811571	0.0	0.8820707437106285	-0.4478079110327125	0.0	0.9225774585213463	-0.3848690415930903	0.0	0.9184160825011517	-0.4287066348458523	0.0	0.8493108835775756	-0.4595003816129586	0.0	0.8014401247859115	-0.5120595467256801	0.0	0.8340468141207509	-0.5542702641634625	0.0	0.8859444111210383	-0.47045474478041494	0.0	0.8532454808110056	-0.5288363231010892	0.0	0.872930216415063	-0.586438463328611	0.0
124	4.150997150997151	0.8676443927021114	-0.6139990375799155	0.0	0.8538962150881076	-0.6123403723832374	0.0	0.8442919667364936	-0.7193259989978887	0.0	0.7923344684994321	-0.8361099506110399	0.0	0.8278072329550435	-0.8453749456111384	0.0	0.8133023551123172	-0.8500717672715108	0.0	0.7807837912737259	-0.8489647513310773	0.0	0.8834069466006866	-0.6127532056442806	0.0	0.9164852645015803	-0.7075496949757129	0.0	0.918960199656128	-0.8136128415450441	0.0	0.9661209502634007	-0.8248723628790674	0.0	0.9601819124706938	-0.8220701107963438	0.0	0.9135342118864013	-0.8305380754462357	0.0	0.887299741539819	-0.45344543786229446	0.0	0.9231114186849417	-0.3888321684850924	0.0	0.9199717157743327	-0.432232815506364	0.0	0.8526496596938312	-0.4659314766008537	0.0	0.8054559715228252	-0.5197052168111206	0.0	0.8361963071936384	-0.5595201871782428	0.0	0.8949534837715362	-0.47803944649030206	0.0	0.8688984388644252	-0.5404780658651203	0.0	0.8865911720660766	-0.5994362220001579	0.0
125	4.184472934472935	0.8753623307877617	-0.6183294845770976	0.0	0.8606481764816001	-0.6173966341448677	0.0	0.8506218892292329	-0.7227523731466814	0.0	0.7935611113391706	-0.8359440512705192	0.0	0.8252092078315607	-0.846740466112321	0.0	0.8104549138397913	-0.8508878237747085	0.0	0.7817051133557497	-0.8488932057805837	0.0	0.8910221793328373	-0.6182120885040479	0.0	0.919611650425973	-0.7133998512965575	0.0	0.9188716224690167	-0.8195840245984768	0.0	0.9650925773668474	-0.8305704620880798	0.0	0.9597773356430191	-0.8281490805581871	0.0	0.9125266453730302	-0.8359596114708758	0.0	0.8923889999183074	-0.4576077996843005	0.0	0.9238917328082473	-0.3917146581032691	0.0	0.9215347507741197	-0.4347160865772524	0.0	0.8564999314871147	-0.4708025345691985	0.0	0.8106775230036677	-0.5264446564819765	0.0	0.839092349428765	-0.5656597039753607	0.0	0.9034185065828857	-0.4835914219995159	0.0	0.8839940716477965	-0.550545750292531	0.0	0.9013240442414886	-0.6106054525094906	0.0
126	4.217948717948718	0.882469886727232	-0.6202452078451334	0.0	0.8673274099742893	-0.6202097589629284	0.0	0.858804988096972	-0.7241986405311263	0.0	0.7955533175417918	-0.832436595445863	0.0	0.8240151109008756	-0.8467165794844256	0.0	0.8094515906952642	-0.8500304566840292	0.0	0.7830081751037874	-0.8452340144689382	0.0	0.8978009882841369	-0.6213340781489236	0.0	0.922736823110891	-0.7166333738129319	0.0	0.9189281114934691	-0.8229860046945754	0.0	0.9640554910331453	-0.8341749798132446	0.0	0.9594717458000058	-0.8319876887574472	0.0	0.9117179461018857	-0.8387133748861522	0.0	0.8972579014877501	-0.4598172292799175	0.0	0.9251479780901849	-0.39304301421621085	0.0	0.9233785676841733	-0.4357565151470356	0.0	0.8607344703794254	-0.47361834631327954	0.0	0.8168012507348216	-0.531451774894625	0.0	0.842770851800232	-0.5719068837508574	0.0	0.9110687747489538	-0.48661066514761897	0.0	0.8973077442580466	-0.5575137718345717	0.0	0.9158115395374363	-0.6178503510474002	0.0
127	4.251424501424502	0.8887097634868231	-0.6195319144968747	0.0	0.8737518551163631	-0.6204224403266123	0.0	0.8692541627886109	-0.723301760142984	0.0	0.7988834408600737	-0.825309459925408	0.0	0.8248896371539629	-0.8450336155341729	0.0	0.8107863806221239	-0.8472226554247059	0.0	0.7852127293451077	-0.8374498060462198	0.0	0.9035177861521221	-0.6217351749148643	0.0	0.9256779483507553	-0.7171737608225984	0.0	0.9192555861535671	-0.8236605333587209	0.0	0.9632846208188863	-0.835504384962983	0.0	0.9593839907555916	-0.8334598355806545	0.0	0.9112906271244782	-0.8386702103276626	0.0	0.9018628266017996	-0.4598070992164122	0.0	0.9270188035906224	-0.3925536023467568	0.0	0.925655530188904	-0.435060702693316	0.0	0.8651164709460617	-0.4741018392304686	0.0	0.8234058254029386	-0.5341935550816127	0.0	0.8472129872395133	-0.5774781466992588	0.0	0.9178175086780298	-0.4869135619224432	0.0	0.9081688496016869	-0.5605368854038444	0.0	0.9288980688154858	-0.6200647890759996	0.0
128	4.284900284900285	0.8940472738206561	-0.6162379329315036	0.0	0.8797471339267977	-0.6178796231834902	0.0	0.8820050240651919	-0.7199517063243933	0.0	0.8041570484212315	-0.8148977190270861	0.0	0.8282782939697055	-0.8415216710825424	0.0	0.8146903853096454	-0.8423563214637726	0.0	0.7890341348523419	-0.8257359784854481	0.0	0.9082123403715819	-0.6193148440943705	0.0	0.9281822109270572	-0.715204215298897	0.0	0.9198373847931088	-0.8217785469205255	0.0	0.9629370554409528	-0.834576814024623	0.0	0.9595714041413975	-0.8326228604238658	0.0	0.9113036949229508	-0.8360559755765398	0.0	0.9061824410472451	-0.45757639294252594	0.0	0.9294877795739875	-0.39020122128398554	0.0	0.9283320840123908	-0.43252218869709386	0.0	0.8693272878548804	-0.4722648158893712	0.0	0.8300182669010222	-0.5345347873853663	0.0	0.8523055832177984	-0.581683226806022	0.0	0.9237570843313533	-0.48470542660179233	0.0	0.9166233419478691	-0.559702731134476	0.0	0.9399529610947328	-0.6174087447537904	0.0
